<svg width="574" height="52" viewBox="0 0 574 52" fill="none" xmlns="http://www.w3.org/2000/svg">
<path d="M227.253 18V4.8H231.953C233.513 4.8 234.653 5.12667 235.373 5.78C236.093 6.43333 236.453 7.32 236.453 8.44C236.453 9.10667 236.259 9.71333 235.873 10.26C235.486 10.7933 234.939 11.1333 234.233 11.28V11.3C235.019 11.4467 235.639 11.8067 236.093 12.38C236.559 12.94 236.793 13.58 236.793 14.3C236.793 15.42 236.373 16.32 235.533 17C234.693 17.6667 233.493 18 231.933 18H227.253ZM228.853 10.6H231.973C233.839 10.6 234.773 9.88 234.773 8.44C234.773 7.01333 233.839 6.3 231.973 6.3H228.853V10.6ZM228.853 16.5H232.313C233.259 16.5 233.959 16.3067 234.413 15.92C234.879 15.5333 235.113 14.9933 235.113 14.3C235.113 13.5933 234.879 13.0533 234.413 12.68C233.959 12.2933 233.259 12.1 232.313 12.1H228.853V16.5ZM250.819 4.8V13.08C250.819 14.7733 250.372 16.0533 249.479 16.92C248.586 17.7733 247.306 18.2 245.639 18.2C243.986 18.2 242.706 17.7733 241.799 16.92C240.906 16.0533 240.459 14.7733 240.459 13.08V4.8H242.059V12.68C242.059 14.0533 242.346 15.0667 242.919 15.72C243.506 16.3733 244.412 16.7 245.639 16.7C246.866 16.7 247.766 16.3733 248.339 15.72C248.926 15.0667 249.219 14.0533 249.219 12.68V4.8H250.819ZM256.879 4.8V18H255.279V4.8H256.879ZM263.197 16.5H270.757V18H261.597V4.8H263.197V16.5ZM280.652 4.8V6.3H276.052V18H274.452V6.3H269.852V4.8H280.652ZM290.512 18V4.8H295.212C296.772 4.8 297.912 5.12667 298.632 5.78C299.352 6.43333 299.712 7.32 299.712 8.44C299.712 9.10667 299.519 9.71333 299.132 10.26C298.745 10.7933 298.199 11.1333 297.492 11.28V11.3C298.279 11.4467 298.899 11.8067 299.352 12.38C299.819 12.94 300.052 13.58 300.052 14.3C300.052 15.42 299.632 16.32 298.792 17C297.952 17.6667 296.752 18 295.192 18H290.512ZM292.112 10.6H295.232C297.099 10.6 298.032 9.88 298.032 8.44C298.032 7.01333 297.099 6.3 295.232 6.3H292.112V10.6ZM292.112 16.5H295.572C296.519 16.5 297.219 16.3067 297.672 15.92C298.139 15.5333 298.372 14.9933 298.372 14.3C298.372 13.5933 298.139 13.0533 297.672 12.68C297.219 12.2933 296.519 12.1 295.572 12.1H292.112V16.5ZM312.668 4.8L307.948 12.84V18H306.348V12.84L301.628 4.8H303.528L306.088 9.32L307.148 11.2L308.208 9.32L310.768 4.8H312.668ZM315.549 7.8C315.936 7.8 316.249 7.92 316.489 8.16C316.729 8.4 316.849 8.71333 316.849 9.1C316.849 9.48667 316.729 9.8 316.489 10.04C316.249 10.28 315.936 10.4 315.549 10.4C315.163 10.4 314.849 10.28 314.609 10.04C314.369 9.8 314.249 9.48667 314.249 9.1C314.249 8.71333 314.369 8.4 314.609 8.16C314.849 7.92 315.163 7.8 315.549 7.8ZM315.549 15.6C315.936 15.6 316.249 15.72 316.489 15.96C316.729 16.2 316.849 16.5133 316.849 16.9C316.849 17.2867 316.729 17.6 316.489 17.84C316.249 18.08 315.936 18.2 315.549 18.2C315.163 18.2 314.849 18.08 314.609 17.84C314.369 17.6 314.249 17.2867 314.249 16.9C314.249 16.5133 314.369 16.2 314.609 15.96C314.849 15.72 315.163 15.6 315.549 15.6Z" fill="white"/>
<path d="M12.809 14.62C12.3957 15.7533 11.7157 16.6333 10.769 17.26C9.82232 17.8867 8.72899 18.2 7.48899 18.2C6.23565 18.2 5.14899 17.9267 4.22899 17.38C3.32232 16.82 2.61565 16.0333 2.10899 15.02C1.61565 14.0067 1.36899 12.8 1.36899 11.4C1.36899 10 1.61565 8.79333 2.10899 7.78C2.61565 6.76667 3.32232 5.98667 4.22899 5.44C5.14899 4.88 6.22232 4.6 7.44899 4.6C8.72899 4.6 9.79565 4.86667 10.649 5.4C11.5157 5.92 12.1557 6.68 12.569 7.68L10.989 8.42C10.6957 7.66 10.269 7.08667 9.70899 6.7C9.16232 6.3 8.44899 6.1 7.56899 6.1C6.67565 6.1 5.88899 6.31333 5.20899 6.74C4.52899 7.15333 3.99565 7.75333 3.60899 8.54C3.23565 9.32667 3.04899 10.28 3.04899 11.4C3.04899 13.0533 3.44232 14.3533 4.22899 15.3C5.02899 16.2333 6.11565 16.7 7.48899 16.7C8.36899 16.7 9.13565 16.48 9.78899 16.04C10.4423 15.5867 10.9157 14.9133 11.209 14.02L12.809 14.62ZM21.2799 4.8C22.6266 4.8 23.7066 5.14667 24.5199 5.84C25.3333 6.53333 25.7399 7.47333 25.7399 8.66C25.7399 9.60667 25.4733 10.3867 24.9399 11C24.4066 11.6133 23.6866 12.0333 22.7799 12.26L26.5399 18H24.6399L21.0399 12.52H17.8799V18H16.2799V4.8H21.2799ZM21.2599 11.02C23.1266 11.02 24.0599 10.2333 24.0599 8.66C24.0599 7.08667 23.1266 6.3 21.2599 6.3H17.8799V11.02H21.2599ZM29.9807 18V4.8H39.2407V6.3H31.5807V10.56H37.5407V12.06H31.5807V16.5H39.5407V18H29.9807ZM41.4946 18L46.6346 4.8H48.5346L53.6546 18H51.9546L50.5546 14.34H44.5746L43.1746 18H41.4946ZM46.9546 8.1L45.1546 12.84H49.9746L48.1946 8.16L47.5746 6.32H47.5346L46.9546 8.1ZM64.2209 4.8V6.3H59.6209V18H58.0209V6.3H53.4209V4.8H64.2209ZM67.4112 18V4.8H76.6712V6.3H69.0112V10.56H74.9712V12.06H69.0112V16.5H76.9712V18H67.4112ZM84.8251 4.8C86.8917 4.8 88.5117 5.37333 89.6851 6.52C90.8718 7.65333 91.4651 9.28 91.4651 11.4C91.4651 13.52 90.8718 15.1533 89.6851 16.3C88.5117 17.4333 86.8917 18 84.8251 18H80.5651V4.8H84.8251ZM84.9851 16.5C86.4917 16.5 87.6651 16.0533 88.5051 15.16C89.3584 14.2533 89.7851 13 89.7851 11.4C89.7851 9.8 89.3584 8.55333 88.5051 7.66C87.6651 6.75333 86.4917 6.3 84.9851 6.3H82.1651V16.5H84.9851ZM102.596 18V4.8H107.296C108.856 4.8 109.996 5.12667 110.716 5.78C111.436 6.43333 111.796 7.32 111.796 8.44C111.796 9.10667 111.602 9.71333 111.216 10.26C110.829 10.7933 110.282 11.1333 109.576 11.28V11.3C110.362 11.4467 110.982 11.8067 111.436 12.38C111.902 12.94 112.136 13.58 112.136 14.3C112.136 15.42 111.716 16.32 110.876 17C110.036 17.6667 108.836 18 107.276 18H102.596ZM104.196 10.6H107.316C109.182 10.6 110.116 9.88 110.116 8.44C110.116 7.01333 109.182 6.3 107.316 6.3H104.196V10.6ZM104.196 16.5H107.656C108.602 16.5 109.302 16.3067 109.756 15.92C110.222 15.5333 110.456 14.9933 110.456 14.3C110.456 13.5933 110.222 13.0533 109.756 12.68C109.302 12.2933 108.602 12.1 107.656 12.1H104.196V16.5ZM124.751 4.8L120.031 12.84V18H118.431V12.84L113.711 4.8H115.611L118.171 9.32L119.231 11.2L120.291 9.32L122.851 4.8H124.751ZM127.633 7.8C128.02 7.8 128.333 7.92 128.573 8.16C128.813 8.4 128.933 8.71333 128.933 9.1C128.933 9.48667 128.813 9.8 128.573 10.04C128.333 10.28 128.02 10.4 127.633 10.4C127.246 10.4 126.933 10.28 126.693 10.04C126.453 9.8 126.333 9.48667 126.333 9.1C126.333 8.71333 126.453 8.4 126.693 8.16C126.933 7.92 127.246 7.8 127.633 7.8ZM127.633 15.6C128.02 15.6 128.333 15.72 128.573 15.96C128.813 16.2 128.933 16.5133 128.933 16.9C128.933 17.2867 128.813 17.6 128.573 17.84C128.333 18.08 128.02 18.2 127.633 18.2C127.246 18.2 126.933 18.08 126.693 17.84C126.453 17.6 126.333 17.2867 126.333 16.9C126.333 16.5133 126.453 16.2 126.693 15.96C126.933 15.72 127.246 15.6 127.633 15.6Z" fill="white"/>
<path d="M234.703 49.9C233.036 49.9 231.569 49.5533 230.303 48.86C229.049 48.1667 228.076 47.1933 227.383 45.94C226.689 44.6733 226.343 43.2067 226.343 41.54C226.343 40.2467 226.556 39.0667 226.983 38C227.423 36.9333 228.036 36.0133 228.823 35.24C229.609 34.4533 230.536 33.8533 231.603 33.44C232.669 33.0133 233.843 32.8 235.123 32.8C236.376 32.8 237.489 33.0067 238.463 33.42C239.436 33.82 240.256 34.38 240.923 35.1C241.603 35.82 242.116 36.6467 242.463 37.58C242.809 38.5133 242.983 39.5 242.983 40.54C242.983 41.7 242.789 42.7 242.403 43.54C242.016 44.38 241.516 45.0267 240.903 45.48C240.289 45.9333 239.629 46.16 238.923 46.16C238.203 46.16 237.669 45.9733 237.323 45.6C236.989 45.2267 236.849 44.7533 236.903 44.18C236.609 44.74 236.169 45.1867 235.583 45.52C234.996 45.8533 234.389 46.02 233.763 46.02C233.069 46.02 232.456 45.8533 231.923 45.52C231.403 45.1867 230.996 44.7267 230.703 44.14C230.409 43.54 230.263 42.8533 230.263 42.08C230.263 41.08 230.456 40.18 230.843 39.38C231.243 38.5667 231.783 37.9267 232.463 37.46C233.156 36.98 233.943 36.74 234.823 36.74C235.609 36.74 236.263 36.94 236.783 37.34C237.316 37.74 237.669 38.2733 237.843 38.94L238.323 36.92H239.743L238.223 43.44C238.196 43.5733 238.169 43.7 238.143 43.82C238.129 43.9267 238.123 44.0333 238.123 44.14C238.123 44.5133 238.216 44.76 238.403 44.88C238.603 44.9867 238.823 45.04 239.063 45.04C239.543 45.04 239.989 44.8733 240.403 44.54C240.816 44.2067 241.149 43.7067 241.403 43.04C241.669 42.36 241.803 41.5267 241.803 40.54C241.803 39.2867 241.529 38.1667 240.983 37.18C240.449 36.1933 239.683 35.4133 238.683 34.84C237.696 34.2667 236.529 33.98 235.183 33.98C233.716 33.98 232.416 34.2933 231.283 34.92C230.149 35.5333 229.263 36.4067 228.623 37.54C227.996 38.6733 227.683 40.0067 227.683 41.54C227.683 43.0333 227.989 44.3133 228.603 45.38C229.229 46.4467 230.069 47.2667 231.123 47.84C232.189 48.4267 233.383 48.72 234.703 48.72C235.836 48.72 236.729 48.5733 237.383 48.28C238.036 48 238.583 47.6933 239.023 47.36L239.723 48.34C239.363 48.62 238.956 48.8733 238.503 49.1C238.063 49.34 237.536 49.5333 236.923 49.68C236.309 49.8267 235.569 49.9 234.703 49.9ZM234.223 44.8C234.783 44.8 235.296 44.62 235.763 44.26C236.229 43.8867 236.596 43.3867 236.863 42.76C237.143 42.12 237.283 41.4067 237.283 40.62C237.283 39.82 237.063 39.18 236.623 38.7C236.196 38.22 235.629 37.98 234.923 37.98C234.296 37.98 233.736 38.16 233.243 38.52C232.749 38.88 232.363 39.3667 232.083 39.98C231.816 40.5933 231.683 41.2867 231.683 42.06C231.683 42.94 231.903 43.62 232.343 44.1C232.783 44.5667 233.409 44.8 234.223 44.8ZM250.803 46.2C249.309 46.2 248.116 45.62 247.223 44.46C246.329 43.3 245.883 41.6133 245.883 39.4C245.883 37.1867 246.329 35.5 247.223 34.34C248.116 33.18 249.309 32.6 250.803 32.6C252.309 32.6 253.503 33.18 254.383 34.34C255.276 35.5 255.723 37.1867 255.723 39.4C255.723 41.6133 255.276 43.3 254.383 44.46C253.503 45.62 252.309 46.2 250.803 46.2ZM250.803 44.76C251.869 44.76 252.676 44.3 253.223 43.38C253.783 42.46 254.063 41.1333 254.063 39.4C254.063 37.6533 253.783 36.3267 253.223 35.42C252.676 34.5 251.869 34.04 250.803 34.04C249.749 34.04 248.943 34.5 248.383 35.42C247.823 36.3267 247.543 37.6533 247.543 39.4C247.543 41.1333 247.823 42.46 248.383 43.38C248.943 44.3 249.749 44.76 250.803 44.76ZM260.244 36L262.884 39.7L265.484 36H267.364L263.744 40.9L267.424 46H265.464L262.704 42.14L259.864 46H258.004L261.844 40.96L258.244 36H260.244ZM270.648 46V32.8H275.348C276.908 32.8 278.048 33.1267 278.768 33.78C279.488 34.4333 279.848 35.32 279.848 36.44C279.848 37.1067 279.655 37.7133 279.268 38.26C278.882 38.7933 278.335 39.1333 277.628 39.28V39.3C278.415 39.4467 279.035 39.8067 279.488 40.38C279.955 40.94 280.188 41.58 280.188 42.3C280.188 43.42 279.768 44.32 278.928 45C278.088 45.6667 276.888 46 275.328 46H270.648ZM272.248 38.6H275.368C277.235 38.6 278.168 37.88 278.168 36.44C278.168 35.0133 277.235 34.3 275.368 34.3H272.248V38.6ZM272.248 44.5H275.708C276.655 44.5 277.355 44.3067 277.808 43.92C278.275 43.5333 278.508 42.9933 278.508 42.3C278.508 41.5933 278.275 41.0533 277.808 40.68C277.355 40.2933 276.655 40.1 275.708 40.1H272.248V44.5ZM294.215 32.8V41.08C294.215 42.7733 293.768 44.0533 292.875 44.92C291.981 45.7733 290.701 46.2 289.035 46.2C287.381 46.2 286.101 45.7733 285.195 44.92C284.301 44.0533 283.855 42.7733 283.855 41.08V32.8H285.455V40.68C285.455 42.0533 285.741 43.0667 286.315 43.72C286.901 44.3733 287.808 44.7 289.035 44.7C290.261 44.7 291.161 44.3733 291.735 43.72C292.321 43.0667 292.615 42.0533 292.615 40.68V32.8H294.215ZM303.675 32.8C305.022 32.8 306.102 33.1467 306.915 33.84C307.728 34.5333 308.135 35.4733 308.135 36.66C308.135 37.6067 307.868 38.3867 307.335 39C306.802 39.6133 306.082 40.0333 305.175 40.26L308.935 46H307.035L303.435 40.52H300.275V46H298.675V32.8H303.675ZM303.655 39.02C305.522 39.02 306.455 38.2333 306.455 36.66C306.455 35.0867 305.522 34.3 303.655 34.3H300.275V39.02H303.655ZM317.376 32.8C318.722 32.8 319.802 33.1467 320.616 33.84C321.429 34.5333 321.836 35.4733 321.836 36.66C321.836 37.6067 321.569 38.3867 321.036 39C320.502 39.6133 319.782 40.0333 318.876 40.26L322.636 46H320.736L317.136 40.52H313.976V46H312.376V32.8H317.376ZM317.356 39.02C319.222 39.02 320.156 38.2333 320.156 36.66C320.156 35.0867 319.222 34.3 317.356 34.3H313.976V39.02H317.356ZM336.176 32.8V41.08C336.176 42.7733 335.73 44.0533 334.836 44.92C333.943 45.7733 332.663 46.2 330.996 46.2C329.343 46.2 328.063 45.7733 327.156 44.92C326.263 44.0533 325.816 42.7733 325.816 41.08V32.8H327.416V40.68C327.416 42.0533 327.703 43.0667 328.276 43.72C328.863 44.3733 329.77 44.7 330.996 44.7C332.223 44.7 333.123 44.3733 333.696 43.72C334.283 43.0667 334.576 42.0533 334.576 40.68V32.8H336.176ZM340.637 46V32.8H349.897V34.3H342.237V38.56H348.197V40.06H342.237V44.5H350.197V46H340.637ZM363.07 32.8V34.3H358.47V46H356.87V34.3H352.27V32.8H363.07ZM375.541 32.8V34.3H370.941V46H369.341V34.3H364.741V32.8H375.541ZM375.294 46L380.434 32.8H382.334L387.454 46H385.754L384.354 42.34H378.374L376.974 46H375.294ZM380.754 36.1L378.954 40.84H383.774L381.994 36.16L381.374 34.32H381.334L380.754 36.1Z" fill="white"/>
<path d="M436.821 4.8C438.887 4.8 440.507 5.37333 441.681 6.52C442.867 7.65333 443.461 9.28 443.461 11.4C443.461 13.52 442.867 15.1533 441.681 16.3C440.507 17.4333 438.887 18 436.821 18H432.561V4.8H436.821ZM436.981 16.5C438.487 16.5 439.661 16.0533 440.501 15.16C441.354 14.2533 441.781 13 441.781 11.4C441.781 9.8 441.354 8.55333 440.501 7.66C439.661 6.75333 438.487 6.3 436.981 6.3H434.161V16.5H436.981ZM447.375 18V4.8H456.635V6.3H448.975V10.56H454.935V12.06H448.975V16.5H456.935V18H447.375ZM464.769 4.6C465.929 4.6 466.929 4.84 467.769 5.32C468.609 5.78667 469.309 6.48 469.869 7.4L468.529 8.44C468.035 7.58667 467.475 6.98667 466.849 6.64C466.235 6.28 465.489 6.1 464.609 6.1C463.542 6.1 462.762 6.31333 462.269 6.74C461.775 7.16667 461.529 7.68667 461.529 8.3C461.529 8.76667 461.675 9.18 461.969 9.54C462.262 9.88667 462.849 10.16 463.729 10.36L466.589 11C467.855 11.28 468.735 11.7067 469.229 12.28C469.735 12.84 469.989 13.54 469.989 14.38C469.989 15.1267 469.775 15.7933 469.349 16.38C468.935 16.9533 468.349 17.4 467.589 17.72C466.829 18.04 465.935 18.2 464.909 18.2C463.482 18.2 462.302 17.92 461.369 17.36C460.435 16.7867 459.722 16.0933 459.229 15.28L460.629 14.14C461.015 14.9 461.562 15.52 462.269 16C462.989 16.4667 463.902 16.7 465.009 16.7C466.035 16.7 466.842 16.5133 467.429 16.14C468.029 15.7667 468.329 15.2267 468.329 14.52C468.329 14.0933 468.189 13.7133 467.909 13.38C467.629 13.0333 467.102 12.7733 466.329 12.6L463.229 11.9C462.002 11.6333 461.129 11.2 460.609 10.6C460.102 10 459.849 9.30667 459.849 8.52C459.849 7.81333 460.042 7.16667 460.429 6.58C460.829 5.98 461.395 5.5 462.129 5.14C462.875 4.78 463.755 4.6 464.769 4.6ZM475.341 4.8V18H473.741V4.8H475.341ZM485.379 18.2C484.126 18.2 483.039 17.9267 482.119 17.38C481.213 16.82 480.506 16.0333 479.999 15.02C479.506 14.0067 479.259 12.8 479.259 11.4C479.259 10 479.519 8.79333 480.039 7.78C480.573 6.76667 481.313 5.98667 482.259 5.44C483.206 4.88 484.293 4.6 485.519 4.6C486.826 4.6 487.886 4.84667 488.699 5.34C489.526 5.83333 490.193 6.59333 490.699 7.62L489.239 8.42C488.946 7.66 488.479 7.08667 487.839 6.7C487.213 6.3 486.439 6.1 485.519 6.1C484.626 6.1 483.833 6.31333 483.139 6.74C482.459 7.15333 481.919 7.76 481.519 8.56C481.133 9.34667 480.939 10.2933 480.939 11.4C480.939 13.0533 481.319 14.3533 482.079 15.3C482.853 16.2333 483.973 16.7 485.439 16.7C486.173 16.7 486.833 16.58 487.419 16.34C488.006 16.0867 488.473 15.7067 488.819 15.2C489.166 14.6933 489.339 14.06 489.339 13.3V12.84H485.139V11.34H490.799V18H489.539L489.479 16.22C489.079 16.86 488.533 17.3533 487.839 17.7C487.159 18.0333 486.339 18.2 485.379 18.2ZM505.292 4.8V18H503.312L497.792 9.16L496.392 6.68H496.372L496.452 8.68V18H494.932V4.8H496.912L502.412 13.6L503.832 16.14H503.852L503.772 14.12V4.8H505.292ZM510.019 18V4.8H519.279V6.3H511.619V10.56H517.579V12.06H511.619V16.5H519.579V18H510.019ZM527.433 4.8C529.5 4.8 531.12 5.37333 532.293 6.52C533.48 7.65333 534.073 9.28 534.073 11.4C534.073 13.52 533.48 15.1533 532.293 16.3C531.12 17.4333 529.5 18 527.433 18H523.173V4.8H527.433ZM527.593 16.5C529.1 16.5 530.273 16.0533 531.113 15.16C531.967 14.2533 532.393 13 532.393 11.4C532.393 9.8 531.967 8.55333 531.113 7.66C530.273 6.75333 529.1 6.3 527.593 6.3H524.773V16.5H527.593ZM545.204 18V4.8H549.904C551.464 4.8 552.604 5.12667 553.324 5.78C554.044 6.43333 554.404 7.32 554.404 8.44C554.404 9.10667 554.21 9.71333 553.824 10.26C553.437 10.7933 552.89 11.1333 552.184 11.28V11.3C552.97 11.4467 553.59 11.8067 554.044 12.38C554.51 12.94 554.744 13.58 554.744 14.3C554.744 15.42 554.324 16.32 553.484 17C552.644 17.6667 551.444 18 549.884 18H545.204ZM546.804 10.6H549.924C551.79 10.6 552.724 9.88 552.724 8.44C552.724 7.01333 551.79 6.3 549.924 6.3H546.804V10.6ZM546.804 16.5H550.264C551.21 16.5 551.91 16.3067 552.364 15.92C552.83 15.5333 553.064 14.9933 553.064 14.3C553.064 13.5933 552.83 13.0533 552.364 12.68C551.91 12.2933 551.21 12.1 550.264 12.1H546.804V16.5ZM567.36 4.8L562.64 12.84V18H561.04V12.84L556.32 4.8H558.22L560.78 9.32L561.84 11.2L562.9 9.32L565.46 4.8H567.36ZM570.241 7.8C570.628 7.8 570.941 7.92 571.181 8.16C571.421 8.4 571.541 8.71333 571.541 9.1C571.541 9.48667 571.421 9.8 571.181 10.04C570.941 10.28 570.628 10.4 570.241 10.4C569.855 10.4 569.541 10.28 569.301 10.04C569.061 9.8 568.941 9.48667 568.941 9.1C568.941 8.71333 569.061 8.4 569.301 8.16C569.541 7.92 569.855 7.8 570.241 7.8ZM570.241 15.6C570.628 15.6 570.941 15.72 571.181 15.96C571.421 16.2 571.541 16.5133 571.541 16.9C571.541 17.2867 571.421 17.6 571.181 17.84C570.941 18.08 570.628 18.2 570.241 18.2C569.855 18.2 569.541 18.08 569.301 17.84C569.061 17.6 568.941 17.2867 568.941 16.9C568.941 16.5133 569.061 16.2 569.301 15.96C569.541 15.72 569.855 15.6 570.241 15.6Z" fill="white"/>
<path d="M441.725 49.9C440.059 49.9 438.592 49.5533 437.325 48.86C436.072 48.1667 435.099 47.1933 434.405 45.94C433.712 44.6733 433.365 43.2067 433.365 41.54C433.365 40.2467 433.579 39.0667 434.005 38C434.445 36.9333 435.059 36.0133 435.845 35.24C436.632 34.4533 437.559 33.8533 438.625 33.44C439.692 33.0133 440.865 32.8 442.145 32.8C443.399 32.8 444.512 33.0067 445.485 33.42C446.459 33.82 447.279 34.38 447.945 35.1C448.625 35.82 449.139 36.6467 449.485 37.58C449.832 38.5133 450.005 39.5 450.005 40.54C450.005 41.7 449.812 42.7 449.425 43.54C449.039 44.38 448.539 45.0267 447.925 45.48C447.312 45.9333 446.652 46.16 445.945 46.16C445.225 46.16 444.692 45.9733 444.345 45.6C444.012 45.2267 443.872 44.7533 443.925 44.18C443.632 44.74 443.192 45.1867 442.605 45.52C442.019 45.8533 441.412 46.02 440.785 46.02C440.092 46.02 439.479 45.8533 438.945 45.52C438.425 45.1867 438.019 44.7267 437.725 44.14C437.432 43.54 437.285 42.8533 437.285 42.08C437.285 41.08 437.479 40.18 437.865 39.38C438.265 38.5667 438.805 37.9267 439.485 37.46C440.179 36.98 440.965 36.74 441.845 36.74C442.632 36.74 443.285 36.94 443.805 37.34C444.339 37.74 444.692 38.2733 444.865 38.94L445.345 36.92H446.765L445.245 43.44C445.219 43.5733 445.192 43.7 445.165 43.82C445.152 43.9267 445.145 44.0333 445.145 44.14C445.145 44.5133 445.239 44.76 445.425 44.88C445.625 44.9867 445.845 45.04 446.085 45.04C446.565 45.04 447.012 44.8733 447.425 44.54C447.839 44.2067 448.172 43.7067 448.425 43.04C448.692 42.36 448.825 41.5267 448.825 40.54C448.825 39.2867 448.552 38.1667 448.005 37.18C447.472 36.1933 446.705 35.4133 445.705 34.84C444.719 34.2667 443.552 33.98 442.205 33.98C440.739 33.98 439.439 34.2933 438.305 34.92C437.172 35.5333 436.285 36.4067 435.645 37.54C435.019 38.6733 434.705 40.0067 434.705 41.54C434.705 43.0333 435.012 44.3133 435.625 45.38C436.252 46.4467 437.092 47.2667 438.145 47.84C439.212 48.4267 440.405 48.72 441.725 48.72C442.859 48.72 443.752 48.5733 444.405 48.28C445.059 48 445.605 47.6933 446.045 47.36L446.745 48.34C446.385 48.62 445.979 48.8733 445.525 49.1C445.085 49.34 444.559 49.5333 443.945 49.68C443.332 49.8267 442.592 49.9 441.725 49.9ZM441.245 44.8C441.805 44.8 442.319 44.62 442.785 44.26C443.252 43.8867 443.619 43.3867 443.885 42.76C444.165 42.12 444.305 41.4067 444.305 40.62C444.305 39.82 444.085 39.18 443.645 38.7C443.219 38.22 442.652 37.98 441.945 37.98C441.319 37.98 440.759 38.16 440.265 38.52C439.772 38.88 439.385 39.3667 439.105 39.98C438.839 40.5933 438.705 41.2867 438.705 42.06C438.705 42.94 438.925 43.62 439.365 44.1C439.805 44.5667 440.432 44.8 441.245 44.8ZM457.825 46.2C456.332 46.2 455.139 45.62 454.245 44.46C453.352 43.3 452.905 41.6133 452.905 39.4C452.905 37.1867 453.352 35.5 454.245 34.34C455.139 33.18 456.332 32.6 457.825 32.6C459.332 32.6 460.525 33.18 461.405 34.34C462.299 35.5 462.745 37.1867 462.745 39.4C462.745 41.6133 462.299 43.3 461.405 44.46C460.525 45.62 459.332 46.2 457.825 46.2ZM457.825 44.76C458.892 44.76 459.699 44.3 460.245 43.38C460.805 42.46 461.085 41.1333 461.085 39.4C461.085 37.6533 460.805 36.3267 460.245 35.42C459.699 34.5 458.892 34.04 457.825 34.04C456.772 34.04 455.965 34.5 455.405 35.42C454.845 36.3267 454.565 37.6533 454.565 39.4C454.565 41.1333 454.845 42.46 455.405 43.38C455.965 44.3 456.772 44.76 457.825 44.76ZM467.267 36L469.907 39.7L472.507 36H474.387L470.767 40.9L474.447 46H472.487L469.727 42.14L466.887 46H465.027L468.867 40.96L465.267 36H467.267ZM479.271 44.5H486.831V46H477.671V32.8H479.271V44.5ZM499.812 32.8V41.08C499.812 42.7733 499.365 44.0533 498.472 44.92C497.578 45.7733 496.298 46.2 494.632 46.2C492.978 46.2 491.698 45.7733 490.792 44.92C489.898 44.0533 489.452 42.7733 489.452 41.08V32.8H491.052V40.68C491.052 42.0533 491.338 43.0667 491.912 43.72C492.498 44.3733 493.405 44.7 494.632 44.7C495.858 44.7 496.758 44.3733 497.332 43.72C497.918 43.0667 498.212 42.0533 498.212 40.68V32.8H499.812ZM514.912 42.62C514.498 43.7533 513.818 44.6333 512.872 45.26C511.925 45.8867 510.832 46.2 509.592 46.2C508.338 46.2 507.252 45.9267 506.332 45.38C505.425 44.82 504.718 44.0333 504.212 43.02C503.718 42.0067 503.472 40.8 503.472 39.4C503.472 38 503.718 36.7933 504.212 35.78C504.718 34.7667 505.425 33.9867 506.332 33.44C507.252 32.88 508.325 32.6 509.552 32.6C510.832 32.6 511.898 32.8667 512.752 33.4C513.618 33.92 514.258 34.68 514.672 35.68L513.092 36.42C512.798 35.66 512.372 35.0867 511.812 34.7C511.265 34.3 510.552 34.1 509.672 34.1C508.778 34.1 507.992 34.3133 507.312 34.74C506.632 35.1533 506.098 35.7533 505.712 36.54C505.338 37.3267 505.152 38.28 505.152 39.4C505.152 41.0533 505.545 42.3533 506.332 43.3C507.132 44.2333 508.218 44.7 509.592 44.7C510.472 44.7 511.238 44.48 511.892 44.04C512.545 43.5867 513.018 42.9133 513.312 42.02L514.912 42.62ZM519.983 32.8V46H518.383V32.8H519.983ZM528.961 32.8C531.027 32.8 532.647 33.3733 533.821 34.52C535.007 35.6533 535.601 37.28 535.601 39.4C535.601 41.52 535.007 43.1533 533.821 44.3C532.647 45.4333 531.027 46 528.961 46H524.701V32.8H528.961ZM529.121 44.5C530.627 44.5 531.801 44.0533 532.641 43.16C533.494 42.2533 533.921 41 533.921 39.4C533.921 37.8 533.494 36.5533 532.641 35.66C531.801 34.7533 530.627 34.3 529.121 34.3H526.301V44.5H529.121Z" fill="white"/>
<path d="M10.0542 49.9C8.38756 49.9 6.92089 49.5533 5.65422 48.86C4.40089 48.1667 3.42756 47.1933 2.73422 45.94C2.04089 44.6733 1.69422 43.2067 1.69422 41.54C1.69422 40.2467 1.90756 39.0667 2.33422 38C2.77422 36.9333 3.38756 36.0133 4.17422 35.24C4.96089 34.4533 5.88756 33.8533 6.95422 33.44C8.02089 33.0133 9.19422 32.8 10.4742 32.8C11.7276 32.8 12.8409 33.0067 13.8142 33.42C14.7876 33.82 15.6076 34.38 16.2742 35.1C16.9542 35.82 17.4676 36.6467 17.8142 37.58C18.1609 38.5133 18.3342 39.5 18.3342 40.54C18.3342 41.7 18.1409 42.7 17.7542 43.54C17.3676 44.38 16.8676 45.0267 16.2542 45.48C15.6409 45.9333 14.9809 46.16 14.2742 46.16C13.5542 46.16 13.0209 45.9733 12.6742 45.6C12.3409 45.2267 12.2009 44.7533 12.2542 44.18C11.9609 44.74 11.5209 45.1867 10.9342 45.52C10.3476 45.8533 9.74089 46.02 9.11422 46.02C8.42089 46.02 7.80756 45.8533 7.27422 45.52C6.75422 45.1867 6.34756 44.7267 6.05422 44.14C5.76089 43.54 5.61422 42.8533 5.61422 42.08C5.61422 41.08 5.80756 40.18 6.19422 39.38C6.59422 38.5667 7.13422 37.9267 7.81422 37.46C8.50756 36.98 9.29422 36.74 10.1742 36.74C10.9609 36.74 11.6142 36.94 12.1342 37.34C12.6676 37.74 13.0209 38.2733 13.1942 38.94L13.6742 36.92H15.0942L13.5742 43.44C13.5476 43.5733 13.5209 43.7 13.4942 43.82C13.4809 43.9267 13.4742 44.0333 13.4742 44.14C13.4742 44.5133 13.5676 44.76 13.7542 44.88C13.9542 44.9867 14.1742 45.04 14.4142 45.04C14.8942 45.04 15.3409 44.8733 15.7542 44.54C16.1676 44.2067 16.5009 43.7067 16.7542 43.04C17.0209 42.36 17.1542 41.5267 17.1542 40.54C17.1542 39.2867 16.8809 38.1667 16.3342 37.18C15.8009 36.1933 15.0342 35.4133 14.0342 34.84C13.0476 34.2667 11.8809 33.98 10.5342 33.98C9.06756 33.98 7.76756 34.2933 6.63422 34.92C5.50089 35.5333 4.61422 36.4067 3.97422 37.54C3.34756 38.6733 3.03422 40.0067 3.03422 41.54C3.03422 43.0333 3.34089 44.3133 3.95422 45.38C4.58089 46.4467 5.42089 47.2667 6.47422 47.84C7.54089 48.4267 8.73422 48.72 10.0542 48.72C11.1876 48.72 12.0809 48.5733 12.7342 48.28C13.3876 48 13.9342 47.6933 14.3742 47.36L15.0742 48.34C14.7142 48.62 14.3076 48.8733 13.8542 49.1C13.4142 49.34 12.8876 49.5333 12.2742 49.68C11.6609 49.8267 10.9209 49.9 10.0542 49.9ZM9.57422 44.8C10.1342 44.8 10.6476 44.62 11.1142 44.26C11.5809 43.8867 11.9476 43.3867 12.2142 42.76C12.4942 42.12 12.6342 41.4067 12.6342 40.62C12.6342 39.82 12.4142 39.18 11.9742 38.7C11.5476 38.22 10.9809 37.98 10.2742 37.98C9.64756 37.98 9.08756 38.16 8.59422 38.52C8.10089 38.88 7.71422 39.3667 7.43422 39.98C7.16756 40.5933 7.03422 41.2867 7.03422 42.06C7.03422 42.94 7.25422 43.62 7.69422 44.1C8.13422 44.5667 8.76089 44.8 9.57422 44.8ZM20.4544 46L25.5944 32.8H27.4944L32.6144 46H30.9144L29.5144 42.34H23.5344L22.1344 46H20.4544ZM25.9144 36.1L24.1144 40.84H28.9344L27.1544 36.16L26.5344 34.32H26.4944L25.9144 36.1ZM46.0575 32.8V46H44.0775L38.5575 37.16L37.1575 34.68H37.1375L37.2175 36.68V46H35.6975V32.8H37.6775L43.1775 41.6L44.5975 44.14H44.6175L44.5375 42.12V32.8H46.0575ZM55.045 32.8C57.1117 32.8 58.7317 33.3733 59.905 34.52C61.0917 35.6533 61.685 37.28 61.685 39.4C61.685 41.52 61.0917 43.1533 59.905 44.3C58.7317 45.4333 57.1117 46 55.045 46H50.785V32.8H55.045ZM55.205 44.5C56.7117 44.5 57.885 44.0533 58.725 43.16C59.5783 42.2533 60.005 41 60.005 39.4C60.005 37.8 59.5783 36.5533 58.725 35.66C57.885 34.7533 56.7117 34.3 55.205 34.3H52.385V44.5H55.205ZM70.5991 32.8C71.9457 32.8 73.0257 33.1467 73.8391 33.84C74.6524 34.5333 75.0591 35.4733 75.0591 36.66C75.0591 37.6067 74.7924 38.3867 74.2591 39C73.7257 39.6133 73.0057 40.0333 72.0991 40.26L75.8591 46H73.9591L70.3591 40.52H67.1991V46H65.5991V32.8H70.5991ZM70.5791 39.02C72.4457 39.02 73.3791 38.2333 73.3791 36.66C73.3791 35.0867 72.4457 34.3 70.5791 34.3H67.1991V39.02H70.5791ZM79.2998 46V32.8H88.5598V34.3H80.8998V38.56H86.8598V40.06H80.8998V44.5H88.8598V46H79.2998ZM102.801 42.62C102.387 43.7533 101.707 44.6333 100.761 45.26C99.8141 45.8867 98.7208 46.2 97.4808 46.2C96.2275 46.2 95.1408 45.9267 94.2208 45.38C93.3141 44.82 92.6075 44.0333 92.1008 43.02C91.6075 42.0067 91.3608 40.8 91.3608 39.4C91.3608 38 91.6075 36.7933 92.1008 35.78C92.6075 34.7667 93.3141 33.9867 94.2208 33.44C95.1408 32.88 96.2141 32.6 97.4408 32.6C98.7208 32.6 99.7875 32.8667 100.641 33.4C101.507 33.92 102.147 34.68 102.561 35.68L100.981 36.42C100.687 35.66 100.261 35.0867 99.7008 34.7C99.1541 34.3 98.4408 34.1 97.5608 34.1C96.6675 34.1 95.8808 34.3133 95.2008 34.74C94.5208 35.1533 93.9875 35.7533 93.6008 36.54C93.2275 37.3267 93.0408 38.28 93.0408 39.4C93.0408 41.0533 93.4341 42.3533 94.2208 43.3C95.0208 44.2333 96.1075 44.7 97.4808 44.7C98.3608 44.7 99.1275 44.48 99.7808 44.04C100.434 43.5867 100.907 42.9133 101.201 42.02L102.801 42.62ZM111.272 32.8C112.618 32.8 113.698 33.1467 114.512 33.84C115.325 34.5333 115.732 35.4733 115.732 36.66C115.732 37.6067 115.465 38.3867 114.932 39C114.398 39.6133 113.678 40.0333 112.772 40.26L116.532 46H114.632L111.032 40.52H107.872V46H106.272V32.8H111.272ZM111.252 39.02C113.118 39.02 114.052 38.2333 114.052 36.66C114.052 35.0867 113.118 34.3 111.252 34.3H107.872V39.02H111.252ZM125.175 32.6C126.429 32.6 127.509 32.88 128.415 33.44C129.335 33.9867 130.042 34.7667 130.535 35.78C131.042 36.7933 131.295 38 131.295 39.4C131.295 40.8 131.042 42.0067 130.535 43.02C130.042 44.0333 129.335 44.82 128.415 45.38C127.509 45.9267 126.429 46.2 125.175 46.2C123.922 46.2 122.835 45.9267 121.915 45.38C121.009 44.82 120.302 44.0333 119.795 43.02C119.302 42.0067 119.055 40.8 119.055 39.4C119.055 38 119.302 36.7933 119.795 35.78C120.302 34.7667 121.009 33.9867 121.915 33.44C122.835 32.88 123.922 32.6 125.175 32.6ZM125.175 34.1C123.802 34.1 122.715 34.5667 121.915 35.5C121.129 36.4333 120.735 37.7333 120.735 39.4C120.735 41.0533 121.129 42.3533 121.915 43.3C122.715 44.2333 123.802 44.7 125.175 44.7C126.549 44.7 127.629 44.2333 128.415 43.3C129.215 42.3533 129.615 41.0533 129.615 39.4C129.615 37.7333 129.215 36.4333 128.415 35.5C127.629 34.5667 126.549 34.1 125.175 34.1ZM145.576 32.8V46H143.596L138.076 37.16L136.676 34.68H136.656L136.736 36.68V46H135.216V32.8H137.196L142.696 41.6L144.116 44.14H144.136L144.056 42.12V32.8H145.576ZM157.444 32.8V41.48C157.444 42.96 157.044 44.12 156.244 44.96C155.457 45.7867 154.364 46.2 152.964 46.2C151.484 46.2 150.404 45.7867 149.724 44.96C149.044 44.1333 148.83 43.0267 149.084 41.64L150.564 41.34C150.417 42.4733 150.517 43.32 150.864 43.88C151.224 44.4267 151.904 44.7 152.904 44.7C154.037 44.7 154.81 44.3933 155.224 43.78C155.637 43.1533 155.844 42.2533 155.844 41.08V32.8H157.444ZM162.032 46V32.8H171.292V34.3H163.632V38.56H169.592V40.06H163.632V44.5H171.592V46H162.032Z" fill="white"/>
<line x1="406" y1="4.37114e-08" x2="406" y2="52" stroke="white" stroke-width="2"/>
<line x1="201" y1="4.37114e-08" x2="201" y2="52" stroke="white" stroke-width="2"/>
</svg>
