<svg width="356" height="248" viewBox="0 0 356 248" fill="none" xmlns="http://www.w3.org/2000/svg">
<path d="M14.1758 116.447C17.3673 117.513 20.5145 117.404 23.6174 116.119C26.7204 114.834 28.9168 112.732 30.2066 109.811C28.9168 112.732 28.8869 115.669 30.1171 118.625C31.3472 121.58 33.496 123.731 36.5635 125.078C33.372 124.012 30.2248 124.121 27.1219 125.406C24.019 126.691 21.8226 128.793 20.5327 131.713C21.8226 128.793 21.8524 125.855 20.6222 122.9C19.3921 119.945 17.2433 117.794 14.1758 116.447ZM39.6573 88.4149C45.8597 90.4774 51.9833 90.2668 58.028 87.7831C64.0727 85.2994 68.354 81.2075 70.8717 75.5074C68.354 81.2075 68.308 86.9322 70.7339 92.6816C73.1598 98.4309 77.3499 102.618 83.3042 105.242C79.2277 103.867 75.0884 103.512 70.8863 104.176C66.6843 104.84 62.9028 106.405 59.5418 108.872C56.1809 111.339 53.6694 114.453 52.0075 118.216C54.5376 112.488 54.6004 106.745 52.1957 100.987C49.7911 95.2299 45.6117 91.039 39.6573 88.4149ZM34.2599 142.97C38.9206 144.536 43.531 144.383 48.0911 142.51C52.6512 140.637 55.88 137.553 57.7776 133.256C55.88 137.553 55.8333 141.864 57.6374 146.191C59.4415 150.517 62.5871 153.66 67.0741 155.62C62.4135 154.054 57.8106 154.21 53.2655 156.089C48.7205 157.967 45.4992 161.055 43.6016 165.351C45.4992 161.055 45.5384 156.741 43.7192 152.408C41.9 148.076 38.7469 144.93 34.2599 142.97ZM76.4876 134.308C81.1482 135.875 85.7404 135.723 90.2643 133.852C94.7881 131.982 98.005 128.884 99.915 124.56C98.0174 128.856 97.9782 133.17 99.7974 137.503C101.617 141.835 104.77 144.981 109.257 146.941C104.596 145.375 99.9887 145.521 95.4348 147.38C90.8809 149.239 87.6551 152.316 85.7576 156.613C87.6551 152.316 87.7063 148.015 85.911 143.708C84.1157 139.401 80.9746 136.268 76.4876 134.308Z" fill="#FFC700"/>
<path d="M341.233 116.447C338.042 117.513 334.895 117.404 331.792 116.119C328.689 114.834 326.492 112.732 325.203 109.811C326.492 112.732 326.522 115.669 325.292 118.625C324.062 121.58 321.913 123.731 318.846 125.078C322.037 124.012 325.184 124.121 328.287 125.406C331.39 126.691 333.587 128.793 334.876 131.713C333.587 128.793 333.557 125.855 334.787 122.9C336.017 119.945 338.166 117.794 341.233 116.447ZM315.752 88.4149C309.549 90.4774 303.426 90.2668 297.381 87.7831C291.336 85.2994 287.055 81.2075 284.538 75.5074C287.055 81.2075 287.101 86.9322 284.675 92.6816C282.249 98.4309 278.059 102.618 272.105 105.242C276.181 103.867 280.321 103.512 284.523 104.176C288.725 104.84 292.506 106.405 295.867 108.872C299.228 111.339 301.74 114.453 303.402 118.216C300.872 112.488 300.809 106.745 303.213 100.987C305.618 95.2299 309.798 91.039 315.752 88.4149ZM321.149 142.97C316.489 144.536 311.878 144.383 307.318 142.51C302.758 140.637 299.529 137.553 297.632 133.256C299.529 137.553 299.576 141.864 297.772 146.191C295.968 150.517 292.822 153.66 288.335 155.62C292.996 154.054 297.599 154.21 302.144 156.089C306.689 157.967 309.91 161.055 311.808 165.351C309.91 161.055 309.871 156.741 311.69 152.408C313.509 148.076 316.662 144.93 321.149 142.97ZM278.922 134.308C274.261 135.875 269.669 135.723 265.145 133.852C260.621 131.982 257.404 128.884 255.494 124.56C257.392 128.856 257.431 133.17 255.612 137.503C253.793 141.835 250.64 144.981 246.153 146.941C250.813 145.375 255.42 145.521 259.974 147.38C264.528 149.239 267.754 152.316 269.652 156.613C267.754 152.316 267.703 148.015 269.498 143.708C271.293 139.401 274.435 136.268 278.922 134.308Z" fill="#FFC700"/>
<path d="M175.547 185.719C176.948 186.982 178.064 188.493 178.833 190.164C179.601 191.835 180.005 193.632 180.022 195.451C180.039 197.269 179.668 199.073 178.931 200.756C178.194 202.439 177.106 203.968 175.729 205.254C174.353 206.54 172.716 207.557 170.914 208.245C169.113 208.934 167.183 209.28 165.236 209.265C163.29 209.249 161.366 208.871 159.578 208.153C157.789 207.436 156.171 206.392 154.819 205.084L134.091 185.719L92.6345 224.463C95.3832 227.033 96.9267 230.518 96.9253 234.151C96.9239 237.784 95.3779 241.268 92.6272 243.836C89.8765 246.404 86.1465 247.846 82.2579 247.844C78.3692 247.843 74.6403 246.399 71.8916 243.829L51.1634 224.463C48.4127 221.895 46.8666 218.412 46.8652 214.779C46.8639 211.145 48.4073 207.661 51.156 205.091C53.9048 202.521 57.6336 201.077 61.5223 201.075C65.411 201.074 69.1409 202.516 71.8916 205.084L113.363 166.353L92.6345 146.988C89.9642 144.405 88.4866 140.945 88.52 137.354C88.5534 133.763 90.0951 130.328 92.8131 127.789C95.531 125.25 99.2078 123.809 103.051 123.778C106.895 123.747 110.598 125.127 113.363 127.622L175.547 185.719ZM185.926 176.036L123.712 117.926L248.111 1.71924L299.946 11.402L310.31 59.8294L185.926 176.036Z" fill="#002E6C"/>
<path d="M168.73 184.742C170.13 186.005 171.247 187.516 172.015 189.187C172.784 190.858 173.188 192.655 173.205 194.474C173.222 196.292 172.851 198.096 172.114 199.779C171.377 201.462 170.288 202.991 168.912 204.277C167.535 205.563 165.899 206.58 164.097 207.268C162.295 207.957 160.365 208.303 158.419 208.288C156.472 208.272 154.549 207.894 152.76 207.176C150.972 206.459 149.354 205.415 148.002 204.107L127.274 184.742L85.8171 223.486C88.5659 226.056 90.1093 229.541 90.1079 233.174C90.1066 236.807 88.5605 240.291 85.8098 242.859C83.0591 245.427 79.3292 246.869 75.4405 246.867C71.5518 246.866 67.823 245.422 65.0742 242.852L44.346 223.486C41.5953 220.918 40.0492 217.435 40.0479 213.802C40.0465 210.169 41.5899 206.684 44.3387 204.114C47.0874 201.544 50.8163 200.1 54.7049 200.098C58.5936 200.097 62.3235 201.539 65.0742 204.107L106.545 165.376L85.8171 146.011C83.1468 143.428 81.6692 139.968 81.7026 136.377C81.736 132.786 83.2777 129.351 85.9957 126.812C88.7136 124.273 92.3904 122.832 96.234 122.801C100.078 122.77 103.781 124.15 106.545 126.645L168.73 184.742V184.742ZM179.109 175.059L116.895 116.949L241.294 0.742188L293.129 10.4249L303.493 58.8523L179.109 175.059V175.059Z" fill="#426A9C"/>
<path d="M160.46 184.162C161.861 185.425 162.977 186.937 163.746 188.607C164.514 190.278 164.918 192.075 164.935 193.894C164.952 195.712 164.581 197.516 163.844 199.199C163.107 200.882 162.019 202.411 160.642 203.697C159.266 204.983 157.629 206 155.827 206.689C154.026 207.377 152.096 207.724 150.149 207.708C148.203 207.692 146.279 207.314 144.491 206.597C142.702 205.879 141.085 204.835 139.732 203.527L119.004 184.162L77.5476 222.907C80.2963 225.476 81.8398 228.961 81.8384 232.594C81.837 236.227 80.2909 239.711 77.5402 242.279C74.7896 244.847 71.0596 246.289 67.1709 246.288C63.2823 246.286 59.5534 244.842 56.8047 242.272L36.0765 222.907C33.3258 220.339 31.7797 216.855 31.7783 213.222C31.7769 209.589 33.3204 206.104 36.0691 203.534C38.8179 200.964 42.5467 199.52 46.4354 199.519C50.3241 199.517 54.054 200.959 56.8047 203.527L98.2758 164.796L77.5476 145.431C74.8773 142.848 73.3997 139.388 73.4331 135.798C73.4665 132.207 75.0082 128.772 77.7261 126.232C80.4441 123.693 84.1208 122.253 87.9644 122.222C91.8081 122.19 95.511 123.571 98.2758 126.066L160.46 184.162ZM170.839 174.479L108.625 116.369L233.024 0.162598L284.859 9.84533L295.223 58.2727L170.839 174.479Z" fill="#EAF5F9"/>
</svg>
