<svg width="264" height="247" viewBox="0 0 264 247" fill="none" xmlns="http://www.w3.org/2000/svg">
<path d="M128.73 184.742C130.13 186.005 131.247 187.516 132.015 189.187C132.784 190.858 133.188 192.655 133.205 194.474C133.222 196.292 132.851 198.096 132.114 199.779C131.377 201.462 130.288 202.991 128.912 204.277C127.535 205.563 125.899 206.58 124.097 207.268C122.295 207.957 120.365 208.303 118.419 208.288C116.472 208.272 114.549 207.894 112.76 207.176C110.972 206.459 109.354 205.415 108.002 204.107L87.2736 184.742L45.8171 223.486C48.5659 226.056 50.1093 229.541 50.1079 233.174C50.1066 236.807 48.5605 240.291 45.8098 242.859C43.0591 245.427 39.3292 246.869 35.4405 246.867C31.5518 246.866 27.823 245.422 25.0742 242.852L4.34599 223.486C1.59532 220.918 0.049227 217.435 0.0478525 213.802C0.0464779 210.169 1.58993 206.684 4.33867 204.114C7.0874 201.544 10.8163 200.1 14.7049 200.098C18.5936 200.097 22.3235 201.539 25.0742 204.107L66.5454 165.376L45.8171 146.011C43.1468 143.428 41.6692 139.968 41.7026 136.377C41.736 132.786 43.2777 129.351 45.9957 126.812C48.7136 124.273 52.3904 122.832 56.234 122.801C60.0776 122.77 63.7806 124.15 66.5454 126.645L128.73 184.742V184.742ZM139.109 175.059L76.8948 116.949L201.294 0.742188L253.129 10.4249L263.493 58.8523L139.109 175.059V175.059Z" fill="#426A9C"/>
</svg>
