<svg width="288" height="49" viewBox="0 0 288 49" fill="none" xmlns="http://www.w3.org/2000/svg">
<rect x="1.5" y="1.5" width="285" height="46" rx="18.5" stroke="white" stroke-width="3"/>
<path d="M45.45 28.275C44.9667 30.0083 44.075 31.275 42.775 32.075C41.4917 32.8583 39.975 33.25 38.225 33.25C36.5417 33.25 35.0917 32.9167 33.875 32.25C32.675 31.5667 31.75 30.5917 31.1 29.325C30.45 28.0583 30.125 26.5333 30.125 24.75C30.125 22.9667 30.45 21.4417 31.1 20.175C31.75 18.9083 32.675 17.9417 33.875 17.275C35.0917 16.5917 36.5333 16.25 38.2 16.25C39.9167 16.25 41.4167 16.6167 42.7 17.35C43.9833 18.0833 44.8333 19.2333 45.25 20.8L41.475 22.325C41.2417 21.3083 40.8583 20.6083 40.325 20.225C39.8083 19.825 39.15 19.625 38.35 19.625C37.15 19.625 36.2083 20.0583 35.525 20.925C34.8583 21.7917 34.525 23.0667 34.525 24.75C34.525 26.4333 34.8417 27.7083 35.475 28.575C36.125 29.4417 37.0917 29.875 38.375 29.875C39.175 29.875 39.85 29.6583 40.4 29.225C40.9667 28.775 41.35 28.0917 41.55 27.175L45.45 28.275ZM55.2416 16.25C56.9083 16.25 58.3416 16.5917 59.5416 17.275C60.7583 17.9417 61.6916 18.9083 62.3416 20.175C62.9916 21.4417 63.3166 22.9667 63.3166 24.75C63.3166 26.5333 62.9916 28.0583 62.3416 29.325C61.6916 30.5917 60.7583 31.5667 59.5416 32.25C58.3416 32.9167 56.9083 33.25 55.2416 33.25C53.5583 33.25 52.1083 32.9167 50.8916 32.25C49.6916 31.5667 48.7666 30.5917 48.1166 29.325C47.4666 28.0583 47.1416 26.5333 47.1416 24.75C47.1416 22.9667 47.4666 21.4417 48.1166 20.175C48.7666 18.9083 49.6916 17.9417 50.8916 17.275C52.1083 16.5917 53.5583 16.25 55.2416 16.25ZM55.2416 19.625C54.0416 19.625 53.1249 20.0583 52.4916 20.925C51.8583 21.775 51.5416 23.05 51.5416 24.75C51.5416 26.45 51.8583 27.7333 52.4916 28.6C53.1249 29.45 54.0416 29.875 55.2416 29.875C56.4249 29.875 57.3333 29.45 57.9666 28.6C58.5999 27.7333 58.9166 26.45 58.9166 24.75C58.9166 23.05 58.5999 21.775 57.9666 20.925C57.3333 20.0583 56.4249 19.625 55.2416 19.625ZM81.1492 16.5V33H76.3742L71.2492 24.075L69.9992 21.625H69.9742L70.0742 24.675V33H66.2742V16.5H71.0492L76.1742 25.425L77.4242 27.875H77.4492L77.3492 24.825V16.5H81.1492ZM99.6795 16.5V33H94.9045L89.7795 24.075L88.5295 21.625H88.5045L88.6045 24.675V33H84.8045V16.5H89.5795L94.7045 25.425L95.9545 27.875H95.9795L95.8795 24.825V16.5H99.6795ZM103.335 33V16.5H116.185V19.825H107.635V23.175H114.435V26.3H107.635V29.675H116.51V33H103.335ZM133.585 28.275C133.101 30.0083 132.21 31.275 130.91 32.075C129.626 32.8583 128.11 33.25 126.36 33.25C124.676 33.25 123.226 32.9167 122.01 32.25C120.81 31.5667 119.885 30.5917 119.235 29.325C118.585 28.0583 118.26 26.5333 118.26 24.75C118.26 22.9667 118.585 21.4417 119.235 20.175C119.885 18.9083 120.81 17.9417 122.01 17.275C123.226 16.5917 124.668 16.25 126.335 16.25C128.051 16.25 129.551 16.6167 130.835 17.35C132.118 18.0833 132.968 19.2333 133.385 20.8L129.61 22.325C129.376 21.3083 128.993 20.6083 128.46 20.225C127.943 19.825 127.285 19.625 126.485 19.625C125.285 19.625 124.343 20.0583 123.66 20.925C122.993 21.7917 122.66 23.0667 122.66 24.75C122.66 26.4333 122.976 27.7083 123.61 28.575C124.26 29.4417 125.226 29.875 126.51 29.875C127.31 29.875 127.985 29.6583 128.535 29.225C129.101 28.775 129.485 28.0917 129.685 27.175L133.585 28.275ZM149.851 16.5V19.825H144.476V33H140.176V19.825H134.776V16.5H149.851ZM161.783 33L157.033 16.5H161.608L164.408 29.525L167.358 16.5H171.258L174.283 29.5L177.033 16.5H181.458L176.683 33H172.008L170.058 25L169.308 20.975H169.258L168.533 25L166.608 33H161.783ZM180.418 33L186.218 16.5H191.368L197.143 33H192.718L191.593 29.275H185.893L184.743 33H180.418ZM188.043 22.375L186.793 26.35H190.693L189.493 22.4L188.768 19.8H188.718L188.043 22.375ZM203.362 29.675H211.637V33H199.062V16.5H203.362V29.675ZM218.401 29.675H226.676V33H214.101V16.5H218.401V29.675ZM229.14 33V16.5H241.99V19.825H233.44V23.175H240.24V26.3H233.44V29.675H242.315V33H229.14ZM258.787 16.5V19.825H253.412V33H249.112V19.825H243.712V16.5H258.787Z" fill="white"/>
</svg>
